<svg xmlns="http://www.w3.org/2000/svg" width="256" height="256" viewBox="0 0 256 256"><path fill="#646cff" d="M255.4 87.7c-.5-3-2.1-5.2-4.1-7.1c-12.7-12.2-44-32.3-44-32.3c-2.8-2.1-6.9-2.1-9.7 0c-11.3 8.5-22.5 16.9-33.8 25.4c-2 .2-4.1-1.1-4.7-3.1c-2.9-10-5.8-20-8.8-30c-.8-2.9-3.2-5.1-6.2-5.1h-11.1c-3.3 0-6 2.7-6 6c0 1.4.5 2.7 1.4 3.8c-1.3 1.5-1.1 3.8.4 5.1c3.1 2.6 6.1 5.3 9.2 7.9c-2.3 2.1-4.5 4.3-6.8 6.4c-2 .2-4.1-1.1-4.7-3.1c-2.9-10-5.8-20-8.8-30c-.8-2.9-3.2-5.1-6.2-5.1H90.8c-3.3 0-6 2.7-6 6c0 1.4.5 2.7 1.4 3.8c-1.3 1.5-1.1 3.8.4 5.1c3.1 2.6 6.1 5.3 9.2 7.9c-10.4 7.8-20.7 15.6-31.1 23.4c-2.8 2.1-6.9 2.1-9.7 0c-12.7-12.2-44-32.3-44-32.3c-2-1.9-3.6-4.1-4.1-7.1c-.8-4.6 2-9.1 6.5-10.5c3.2-1 6.6-1.1 9.8-.3c18.5 4.5 37.1 9 55.6 13.5c3.7 1 7.5 1.4 11.3 1.4c3.8 0 7.6-.5 11.3-1.4c18.5-4.5 37.1-9 55.6-13.5c3.2-.8 6.6-.7 9.8.3c4.5 1.3 7.3 5.8 6.5 10.5Z"/><path fill="#42d392" d="M198.8 143.4c-2-.2-4.1 1.1-4.7 3.1c-2.9 10-5.8 20-8.8 30c-.8 2.9-3.2 5.1-6.2 5.1h-11.1c-3.3 0-6-2.7-6-6c0-1.4-.5-2.7-1.4-3.8c1.3-1.5 1.1-3.8-.4-5.1c-3.1-2.6-6.1-5.3-9.2-7.9c2.3-2.1 4.5-4.3 6.8-6.4c2-.2 4.1 1.1 4.7 3.1c2.9 10 5.8 20 8.8 30c.8 2.9 3.2 5.1 6.2 5.1h11.1c3.3 0 6-2.7 6-6c0-1.4-.5-2.7-1.4-3.8c1.3-1.5 1.1-3.8-.4-5.1c-3.1-2.6-6.1-5.3-9.2-7.9c10.4-7.8 20.7-15.6 31.1-23.4c2.8-2.1 6.9-2.1 9.7 0c12.7 12.2 44 32.3 44 32.3c2 1.9 3.6 4.1 4.1 7.1c.8 4.6-2 9.1-6.5 10.5c-3.2 1-6.6 1.1-9.8.3c-18.5-4.5-37.1-9-55.6-13.5c-3.7-1-7.5-1.4-11.3-1.4c-3.8 0-7.6.5-11.3 1.4c-18.5 4.5-37.1 9-55.6 13.5c-3.2.8-6.6.7-9.8-.3c-4.5-1.3-7.3-5.8-6.5-10.5c.5-3 2.1-5.2 4.1-7.1c12.7-12.2 44-32.3 44-32.3c2.8-2.1 6.9-2.1 9.7 0c11.3 8.5 22.5 16.9 33.8 25.4Z"/></svg>