<svg width="256" height="256" viewBox="0 0 256 256" fill="none" xmlns="http://www.w3.org/2000/svg">
<defs>
<linearGradient id="grad1" x1="0%" y1="0%" x2="100%" y2="100%">
<stop offset="0%" style="stop-color:#FFD15B;stop-opacity:1" />
<stop offset="100%" style="stop-color:#FDB813;stop-opacity:1" />
</linearGradient>
</defs>
<path d="M76 32C76 32 76 224 76 224C76 224 180 224 180 224C180 224 180 144 180 144C180 144 76 144 76 144C76 144 76 32 76 32Z" fill="#1e1e1e" fill-opacity="0.5"/>
<path d="M76 32H180V144H76V32Z" stroke="url(#grad1)" stroke-width="16" stroke-linejoin="round"/>
<path d="M156 56L166.596 82.4038L193 92L166.596 101.596L156 128L145.404 101.596L119 92L145.404 82.4038L156 56Z" fill="url(#grad1)"/>
</svg>
